<?xml version="1.0" standalone="no"?>
<!DOCTYPE svg PUBLIC "-//W3C//DTD SVG 20010904//EN"
 "http://www.w3.org/TR/2001/REC-SVG-20010904/DTD/svg10.dtd">
<svg version="1.0" xmlns="http://www.w3.org/2000/svg"
 width="6955.000000pt" height="6955.000000pt" viewBox="0 0 6955.000000 6955.000000"
 preserveAspectRatio="xMidYMid meet">
<metadata>
Created by potrace 1.11, written by Peter Selinger 2001-2013
</metadata>
<g transform="translate(0.000000,6955.000000) scale(0.100000,-0.100000)"
fill="#000000" stroke="none">
<path d="M34249 69507 c-325 -181 -29660 -17430 -29689 -17457 -93 -86 -126
-182 -115 -338 4 -57 67 -7818 140 -17246 l132 -17141 22 -55 c31 -80 111
-183 173 -224 29 -19 1734 -987 3788 -2151 2054 -1165 3832 -2173 3950 -2240
118 -67 5113 -2900 11100 -6295 5987 -3394 10901 -6183 10920 -6196 127 -88
153 -102 222 -120 97 -24 196 -22 273 7 45 17 76 38 125 88 62 62 723 445
14860 8607 8801 5081 14814 8559 14842 8583 30 27 59 67 80 109 30 61 33 74
33 162 0 77 -5 104 -23 144 l-22 48 -161 17100 -161 17099 23 52 c19 42 23 70
24 142 0 82 -3 96 -32 156 -21 41 -52 84 -86 115 -42 39 -3147 1789 -14929
8414 l-14876 8365 -48 85 c-60 105 -121 172 -187 205 -46 23 -62 25 -176 25
l-126 0 -76 -43z m15005 -26239 c2733 -4621 4969 -8407 4969 -8412 0 -8 -2089
-3707 -2977 -5271 -50 -89 -1546 -2733 -3325 -5877 l-3235 -5716 -8140 5
c-4478 3 -8879 8 -9780 12 l-1639 6 -4885 8325 c-2686 4579 -4886 8332 -4889
8340 -4 14 9531 16815 9561 16847 9 10 1972 27 9026 77 4958 35 9314 64 9680
65 l665 1 4969 -8402z"/>
</g>
</svg>
